<svg xmlns="http://www.w3.org/2000/svg" xmlns:xlink="http://www.w3.org/1999/xlink" id="processonSvg1000" viewBox="121.85681734180127 66.44349315068496 801.9931735029253 966.660102739726" width="801.9931735029253" height="966.660102739726"><defs id="ProcessOnDefs1001"/><g id="ProcessOnG1002"><path id="ProcessOnPath1003" d="M121.85681734180127 66.44349315068496H923.8499908447266V1033.1035958904108H121.85681734180127V66.44349315068484Z" fill="none"/><g id="ProcessOnG1004"><g id="ProcessOnG1005"><path id="ProcessOnPath1006" d="M501.125 178.69349315068496L501.125 573.0684931506851L501.125 573.0684931506851L501.125 967.4434931506853" stroke="#a1a1a1" stroke-width="2.0" stroke-dasharray="10.0 4.0" fill="none"/></g><g id="ProcessOnG1007" transform="matrix(1.0,0.0,0.0,1.0,455.0,86.44349315068496)" opacity="1.0"><path id="ProcessOnPath1008" d="M0 46.125C0 -15.375 92.25 -15.375 92.25 46.125C92.25 107.625 0 107.625 0 46.125Z" stroke="#60c9cb" stroke-width="2.0" stroke-dasharray="none" fill="#60c9cb"/><g id="ProcessOnG1009" transform="matrix(1.0,0.0,0.0,1.0,10.0,28.625)"><text id="ProcessOnText1010" fill="#ffffff" font-size="28" x="35.125" y="28.700000000000003" font-family="Impact" size="28" text-anchor="middle" font-weight="normal" font-style="normal" family="Impact" text-decoration="none">step1</text></g></g><g id="ProcessOnG1011" transform="matrix(1.0,0.0,0.0,1.0,592.75,105.78147771361381)" opacity="1.0"><path id="ProcessOnPath1012" d="M0 0L267.5 0L267.5 47.63698630136986L0 47.63698630136986Z" stroke="#60c9cb" stroke-width="2.0" stroke-dasharray="none" fill="#60c9cb"/><g id="ProcessOnG1013" transform="matrix(1.0,0.0,0.0,1.0,10.0,11.94349315068493)"><text id="ProcessOnText1014" fill="#ffffff" font-size="19" x="122.75" y="19.475" font-family="Impact" size="19" text-anchor="middle" font-weight="normal" font-style="normal" family="Impact" text-decoration="none">需求分析</text></g></g><g id="ProcessOnG1015" transform="matrix(-1.8369701987210297E-16,-1.0,1.0,-1.8369701987210297E-16,840.1797945205481,156.3869863013699)" opacity="1.0"><path id="ProcessOnPath1016" d="M23.81849315068493 0L47.63698630136986 21.070205479452053L0 21.070205479452053Z" stroke="#ffffff" stroke-width="2.0" stroke-dasharray="none" fill="#ffffff"/></g><g id="ProcessOnG1017" transform="matrix(0.7071067811865476,0.7071067811865475,-0.7071067811865475,0.7071067811865476,579.2688939847368,94.72310811934892)" opacity="1.0"><path id="ProcessOnPath1018" d="M19.78103188167461 0L39.56206376334922 20.0L0 20.0Z" stroke="#60c9cb" stroke-width="2.0" stroke-dasharray="none" fill="#60c9cb"/></g><g id="ProcessOnG1019" transform="matrix(1.0,0.0,0.0,1.0,591.6827694259864,169.73799371820235)" opacity="1.0"><path id="ProcessOnPath1020" d="M0 0L312.16722141874016 0L312.16722141874016 101.59999084472656L0 101.59999084472656Z" stroke="none" stroke-width="0.0" stroke-dasharray="none" fill="none"/><g id="ProcessOnG1021" transform="matrix(1.0,0.0,0.0,1.0,0.0,3.2999954223632812)"><text id="ProcessOnText1022" fill="#323232" font-size="19" x="0.0" y="19.475" font-family="微软雅黑" size="19" text-anchor="start" font-weight="normal" font-style="normal" family="微软雅黑" text-decoration="none">1.可行性分析报告</text><text id="ProcessOnText1023" fill="#323232" font-size="19" x="0.0" y="43.225" font-family="微软雅黑" size="19" text-anchor="start" font-weight="normal" font-style="normal" family="微软雅黑" text-decoration="none">2.概要设计说明说</text><text id="ProcessOnText1024" fill="#323232" font-size="19" x="0.0" y="66.975" font-family="微软雅黑" size="19" text-anchor="start" font-weight="normal" font-style="normal" family="微软雅黑" text-decoration="none">3.版本迭代计划</text><text id="ProcessOnText1025" fill="#323232" font-size="19" x="0.0" y="90.725" font-family="微软雅黑" size="19" text-anchor="start" font-weight="normal" font-style="normal" family="微软雅黑" text-decoration="none">4.版本测试策略</text></g></g><g id="ProcessOnG1026" transform="matrix(1.0,0.0,0.0,1.0,455.0,228.41010273972597)" opacity="1.0"><path id="ProcessOnPath1027" d="M0 46.125C0 -15.375 92.25 -15.375 92.25 46.125C92.25 107.625 0 107.625 0 46.125Z" stroke="#d7dd27" stroke-width="2.0" stroke-dasharray="none" fill="#d7dd27"/><g id="ProcessOnG1028" transform="matrix(1.0,0.0,0.0,1.0,10.0,28.625)"><text id="ProcessOnText1029" fill="#ffffff" font-size="28" x="35.125" y="28.700000000000003" font-family="Impact" size="28" text-anchor="middle" font-weight="normal" font-style="normal" family="Impact" text-decoration="none">step2</text></g></g><g id="ProcessOnG1030" transform="matrix(1.0,0.0,0.0,1.0,155.74999999999994,254.306506849315)" opacity="1.0"><path id="ProcessOnPath1031" d="M0 0L267.5 0L267.5 47.63698630136986L0 47.63698630136986Z" stroke="#d7dd27" stroke-width="2.0" stroke-dasharray="none" fill="#d7dd27"/><g id="ProcessOnG1032" transform="matrix(1.0,0.0,0.0,1.0,10.0,11.31849315068493)"><text id="ProcessOnText1033" fill="#ffffff" font-size="20" x="122.75" y="20.5" font-family="Impact" size="20" text-anchor="middle" font-weight="normal" font-style="normal" family="Impact" text-decoration="none">开发</text></g></g><g id="ProcessOnG1034" transform="matrix(6.123233995736766E-17,1.0,-1.0,6.123233995736766E-17,176.21041323221223,254.306506849315)" opacity="1.0"><path id="ProcessOnPath1035" d="M23.81849315068493 0L47.63698630136986 21.070205479452053L0 21.070205479452053Z" stroke="#ffffff" stroke-width="2.0" stroke-dasharray="none" fill="#ffffff"/></g><g id="ProcessOnG1036" transform="matrix(0.7071067811865474,-0.7071067811865477,0.7071067811865477,0.7071067811865474,410.087171593218,268.25421853346285)" opacity="1.0"><path id="ProcessOnPath1037" d="M19.78103188167461 0L39.56206376334922 20.0L0 20.0Z" stroke="#d7dd27" stroke-width="2.0" stroke-dasharray="none" fill="#d7dd27"/></g><g id="ProcessOnG1038" transform="matrix(1.0,0.0,0.0,1.0,164.74999999999977,320.66010273972597)" opacity="1.0"><path id="ProcessOnPath1039" d="M0 0L286.17657306915766 0L286.17657306915766 105.10359589041093L0 105.10359589041093Z" stroke="none" stroke-width="0.0" stroke-dasharray="none" fill="none"/><g id="ProcessOnG1040" transform="matrix(1.0,0.0,0.0,1.0,0.0,5.051797945205465)"><text id="ProcessOnText1041" fill="#323232" font-size="19" x="0.0" y="19.475" font-family="微软雅黑" size="19" text-anchor="start" font-weight="normal" font-style="normal" family="微软雅黑" text-decoration="none">1.编码规范</text><text id="ProcessOnText1042" fill="#323232" font-size="19" x="0.0" y="43.225" font-family="微软雅黑" size="19" text-anchor="start" font-weight="normal" font-style="normal" family="微软雅黑" text-decoration="none">2.接口规范，返回码规范</text><text id="ProcessOnText1043" fill="#323232" font-size="19" x="0.0" y="66.975" font-family="微软雅黑" size="19" text-anchor="start" font-weight="normal" font-style="normal" family="微软雅黑" text-decoration="none">3.单元测试</text><text id="ProcessOnText1044" fill="#323232" font-size="19" x="0.0" y="90.725" font-family="微软雅黑" size="19" text-anchor="start" font-weight="normal" font-style="normal" family="微软雅黑" text-decoration="none">4.代码走查</text></g></g><g id="ProcessOnG1045" transform="matrix(1.0,0.0,0.0,1.0,455.0,368.44349315068484)" opacity="1.0"><path id="ProcessOnPath1046" d="M0 46.125C0 -15.375 92.25 -15.375 92.25 46.125C92.25 107.625 0 107.625 0 46.125Z" stroke="#fdad3a" stroke-width="2.0" stroke-dasharray="none" fill="#fdad3a"/><g id="ProcessOnG1047" transform="matrix(1.0,0.0,0.0,1.0,10.0,28.625)"><text id="ProcessOnText1048" fill="#ffffff" font-size="28" x="35.125" y="28.700000000000003" font-family="Impact" size="28" text-anchor="middle" font-weight="normal" font-style="normal" family="Impact" text-decoration="none">step3</text></g></g><g id="ProcessOnG1049" transform="matrix(1.0,0.0,0.0,1.0,580.9875991318834,387.75)" opacity="1.0"><path id="ProcessOnPath1050" d="M0 0L267.5 0L267.5 47.63698630136986L0 47.63698630136986Z" stroke="#fdad3a" stroke-width="2.0" stroke-dasharray="none" fill="#fdad3a"/><g id="ProcessOnG1051" transform="matrix(1.0,0.0,0.0,1.0,10.0,11.31849315068493)"><text id="ProcessOnText1052" fill="#ffffff" font-size="20" x="122.75" y="20.5" font-family="Impact" size="20" text-anchor="middle" font-weight="normal" font-style="normal" family="Impact" text-decoration="none">测试</text></g></g><g id="ProcessOnG1053" transform="matrix(-1.8369701987210297E-16,-1.0,1.0,-1.8369701987210297E-16,829.1797945205481,435.38698630136986)" opacity="1.0"><path id="ProcessOnPath1054" d="M23.81849315068493 0L47.63698630136986 21.070205479452053L0 21.070205479452053Z" stroke="#ffffff" stroke-width="2.0" stroke-dasharray="none" fill="#ffffff"/></g><g id="ProcessOnG1055" transform="matrix(0.7071067811865476,0.7071067811865475,-0.7071067811865475,0.7071067811865476,568.2688939847368,373.723108119349)" opacity="1.0"><path id="ProcessOnPath1056" d="M19.78103188167461 0L39.56206376334922 20.0L0 20.0Z" stroke="#fdad3a" stroke-width="2.0" stroke-dasharray="none" fill="#fdad3a"/></g><g id="ProcessOnG1057" transform="matrix(1.0,0.0,0.0,1.0,582.25,450.0)" opacity="1.0"><path id="ProcessOnPath1058" d="M0 0L278.0 0L278.0 159.0L0 159.0Z" stroke="none" stroke-width="0.0" stroke-dasharray="none" fill="none"/><g id="ProcessOnG1059" transform="matrix(1.0,0.0,0.0,1.0,0.0,8.25)"><text id="ProcessOnText1060" fill="#323232" font-size="19" x="0.0" y="19.475" font-family="微软雅黑" size="19" text-anchor="start" font-weight="normal" font-style="normal" family="微软雅黑" text-decoration="none">1.版本控制</text><text id="ProcessOnText1061" fill="#323232" font-size="19" x="0.0" y="43.225" font-family="微软雅黑" size="19" text-anchor="start" font-weight="normal" font-style="normal" family="微软雅黑" text-decoration="none">2.提测规范</text><text id="ProcessOnText1062" fill="#323232" font-size="19" x="0.0" y="66.975" font-family="微软雅黑" size="19" text-anchor="start" font-weight="normal" font-style="normal" family="微软雅黑" text-decoration="none">3.测试用例</text><text id="ProcessOnText1063" fill="#323232" font-size="19" x="0.0" y="90.725" font-family="微软雅黑" size="19" text-anchor="start" font-weight="normal" font-style="normal" family="微软雅黑" text-decoration="none">4.测试环境</text><text id="ProcessOnText1064" fill="#323232" font-size="19" x="0.0" y="114.475" font-family="微软雅黑" size="19" text-anchor="start" font-weight="normal" font-style="normal" family="微软雅黑" text-decoration="none">5.接口测试</text><text id="ProcessOnText1065" fill="#323232" font-size="19" x="0.0" y="138.225" font-family="微软雅黑" size="19" text-anchor="start" font-weight="normal" font-style="normal" family="微软雅黑" text-decoration="none">6.系统测试</text></g></g><g id="ProcessOnG1066" transform="matrix(1.0,0.0,0.0,1.0,455.0,511.75)" opacity="1.0"><path id="ProcessOnPath1067" d="M0 46.125C0 -15.375 92.25 -15.375 92.25 46.125C92.25 107.625 0 107.625 0 46.125Z" stroke="#f5591f" stroke-width="2.0" stroke-dasharray="none" fill="#f5591f"/><g id="ProcessOnG1068" transform="matrix(1.0,0.0,0.0,1.0,10.0,28.625)"><text id="ProcessOnText1069" fill="#ffffff" font-size="28" x="35.125" y="28.700000000000003" font-family="Impact" size="28" text-anchor="middle" font-weight="normal" font-style="normal" family="Impact" text-decoration="none">step4</text></g></g><g id="ProcessOnG1070" transform="matrix(1.0,0.0,0.0,1.0,155.74999999999977,526.3065068493149)" opacity="1.0"><path id="ProcessOnPath1071" d="M0 0L267.5 0L267.5 47.63698630136986L0 47.63698630136986Z" stroke="#f5591f" stroke-width="2.0" stroke-dasharray="none" fill="#f5591f"/><g id="ProcessOnG1072" transform="matrix(1.0,0.0,0.0,1.0,10.0,11.31849315068493)"><text id="ProcessOnText1073" fill="#ffffff" font-size="20" x="122.75" y="20.5" font-family="Impact" size="20" text-anchor="middle" font-weight="normal" font-style="normal" family="Impact" text-decoration="none">验收</text></g></g><g id="ProcessOnG1074" transform="matrix(6.123233995736766E-17,1.0,-1.0,6.123233995736766E-17,176.21041323221223,526.3065068493149)" opacity="1.0"><path id="ProcessOnPath1075" d="M23.81849315068493 0L47.63698630136986 21.070205479452053L0 21.070205479452053Z" stroke="#ffffff" stroke-width="2.0" stroke-dasharray="none" fill="#ffffff"/></g><g id="ProcessOnG1076" transform="matrix(0.7071067811865474,-0.7071067811865477,0.7071067811865477,0.7071067811865474,410.087171593218,540.2542185334629)" opacity="1.0"><path id="ProcessOnPath1077" d="M19.78103188167461 0L39.56206376334922 20.0L0 20.0Z" stroke="#f5591f" stroke-width="2.0" stroke-dasharray="none" fill="#f5591f"/></g><g id="ProcessOnG1078" transform="matrix(1.0,0.0,0.0,1.0,155.74999999999977,587.556506849315)" opacity="1.0"><path id="ProcessOnPath1079" d="M0 0L281.2833904109589 0L281.2833904109589 106.0L0 106.0Z" stroke="none" stroke-width="0.0" stroke-dasharray="none" fill="none"/><g id="ProcessOnG1080" transform="matrix(1.0,0.0,0.0,1.0,0.0,29.25)"><text id="ProcessOnText1081" fill="#323232" font-size="19" x="0.0" y="19.475" font-family="微软雅黑" size="19" text-anchor="start" font-weight="normal" font-style="normal" family="微软雅黑" text-decoration="none">1.UED验收</text><text id="ProcessOnText1082" fill="#323232" font-size="19" x="0.0" y="43.225" font-family="微软雅黑" size="19" text-anchor="start" font-weight="normal" font-style="normal" family="微软雅黑" text-decoration="none">2.产品验收</text></g></g><g id="ProcessOnG1083" transform="matrix(1.0,0.0,0.0,1.0,455.0,658.0)" opacity="1.0"><path id="ProcessOnPath1084" d="M0 46.125C0 -15.375 92.25 -15.375 92.25 46.125C92.25 107.625 0 107.625 0 46.125Z" stroke="#bb99cb" stroke-width="2.0" stroke-dasharray="none" fill="#bb99cb"/><g id="ProcessOnG1085" transform="matrix(1.0,0.0,0.0,1.0,10.0,28.625)"><text id="ProcessOnText1086" fill="#ffffff" font-size="28" x="35.125" y="28.700000000000003" font-family="Impact" size="28" text-anchor="middle" font-weight="normal" font-style="normal" family="Impact" text-decoration="none">step5</text></g></g><g id="ProcessOnG1087" transform="matrix(1.0,0.0,0.0,1.0,578.4666095890411,669.7500000000005)" opacity="1.0"><path id="ProcessOnPath1088" d="M0 0L267.5 0L267.5 47.63698630136986L0 47.63698630136986Z" stroke="#bb99cb" stroke-width="2.0" stroke-dasharray="none" fill="#bb99cb"/><g id="ProcessOnG1089" transform="matrix(1.0,0.0,0.0,1.0,10.0,6.31849315068493)"><text id="ProcessOnText1090" fill="#ffffff" font-size="28" x="122.75" y="28.700000000000003" font-family="Impact" size="28" text-anchor="middle" font-weight="normal" font-style="normal" family="Impact" text-decoration="none">准生产</text></g></g><g id="ProcessOnG1091" transform="matrix(-1.8369701987210297E-16,-1.0,1.0,-1.8369701987210297E-16,825.8964041095888,717.3869863013703)" opacity="1.0"><path id="ProcessOnPath1092" d="M23.81849315068493 0L47.63698630136986 21.070205479452053L0 21.070205479452053Z" stroke="#ffffff" stroke-width="2.0" stroke-dasharray="none" fill="#ffffff"/></g><g id="ProcessOnG1093" transform="matrix(0.7071067811865476,0.7071067811865475,-0.7071067811865475,0.7071067811865476,564.9855035737779,655.7231081193493)" opacity="1.0"><path id="ProcessOnPath1094" d="M19.78103188167461 0L39.56206376334922 20.0L0 20.0Z" stroke="#bb99cb" stroke-width="2.0" stroke-dasharray="none" fill="#bb99cb"/></g><g id="ProcessOnG1095" transform="matrix(1.0,0.0,0.0,1.0,578.9666095890409,732.0)" opacity="1.0"><path id="ProcessOnPath1096" d="M0 0L281.2833904109589 0L281.2833904109589 106.0L0 106.0Z" stroke="none" stroke-width="0.0" stroke-dasharray="none" fill="none"/><g id="ProcessOnG1097" transform="matrix(1.0,0.0,0.0,1.0,0.0,17.375)"><text id="ProcessOnText1098" fill="#323232" font-size="19" x="0.0" y="19.475" font-family="微软雅黑" size="19" text-anchor="start" font-weight="normal" font-style="normal" family="微软雅黑" text-decoration="none">1.准生产上线申请</text><text id="ProcessOnText1099" fill="#323232" font-size="19" x="0.0" y="43.225" font-family="微软雅黑" size="19" text-anchor="start" font-weight="normal" font-style="normal" family="微软雅黑" text-decoration="none">2.DBA审核SQL</text><text id="ProcessOnText1100" fill="#323232" font-size="19" x="0.0" y="66.975" font-family="微软雅黑" size="19" text-anchor="start" font-weight="normal" font-style="normal" family="微软雅黑" text-decoration="none">3.配置，部署手册</text></g></g><g id="ProcessOnG1101" transform="matrix(1.0,0.0,0.0,1.0,455.0,803.7833904109593)" opacity="1.0"><path id="ProcessOnPath1102" d="M0 46.125C0 -15.375 92.25 -15.375 92.25 46.125C92.25 107.625 0 107.625 0 46.125Z" stroke="#3ab149" stroke-width="2.0" stroke-dasharray="none" fill="#3ab149"/><g id="ProcessOnG1103" transform="matrix(1.0,0.0,0.0,1.0,10.0,28.625)"><text id="ProcessOnText1104" fill="#ffffff" font-size="28" x="35.125" y="28.700000000000003" font-family="Impact" size="28" text-anchor="middle" font-weight="normal" font-style="normal" family="Impact" text-decoration="none">step6</text></g></g><g id="ProcessOnG1105" transform="matrix(1.0,0.0,0.0,1.0,166.7104132322122,817.3065068493152)" opacity="1.0"><path id="ProcessOnPath1106" d="M0 0L267.5 0L267.5 47.63698630136986L0 47.63698630136986Z" stroke="#3ab149" stroke-width="2.0" stroke-dasharray="none" fill="#3ab149"/><g id="ProcessOnG1107" transform="matrix(1.0,0.0,0.0,1.0,10.0,6.31849315068493)"><text id="ProcessOnText1108" fill="#ffffff" font-size="28" x="122.75" y="28.700000000000003" font-family="Impact" size="28" text-anchor="middle" font-weight="normal" font-style="normal" family="Impact" text-decoration="none">正式运行</text></g></g><g id="ProcessOnG1109" transform="matrix(6.123233995736766E-17,1.0,-1.0,6.123233995736766E-17,185.21041323221212,817.306506849315)" opacity="1.0"><path id="ProcessOnPath1110" d="M23.81849315068493 0L47.63698630136986 21.070205479452053L0 21.070205479452053Z" stroke="#ffffff" stroke-width="2.0" stroke-dasharray="none" fill="#ffffff"/></g><g id="ProcessOnG1111" transform="matrix(0.7071067811865474,-0.7071067811865477,0.7071067811865477,0.7071067811865474,419.087171593218,831.2542185334628)" opacity="1.0"><path id="ProcessOnPath1112" d="M19.78103188167461 0L39.56206376334922 20.0L0 20.0Z" stroke="#3ab149" stroke-width="2.0" stroke-dasharray="none" fill="#3ab149"/></g><g id="ProcessOnG1113" transform="matrix(1.0,0.0,0.0,1.0,166.7104132322122,879.5565068493152)" opacity="1.0"><path id="ProcessOnPath1114" d="M0 0L281.2833904109589 0L281.2833904109589 106.0L0 106.0Z" stroke="none" stroke-width="0.0" stroke-dasharray="none" fill="none"/><g id="ProcessOnG1115" transform="matrix(1.0,0.0,0.0,1.0,0.0,17.375)"><text id="ProcessOnText1116" fill="#323232" font-size="19" x="0.0" y="19.475" font-family="微软雅黑" size="19" text-anchor="start" font-weight="normal" font-style="normal" family="微软雅黑" text-decoration="none">1.上线申请</text><text id="ProcessOnText1117" fill="#323232" font-size="19" x="0.0" y="43.225" font-family="微软雅黑" size="19" text-anchor="start" font-weight="normal" font-style="normal" family="微软雅黑" text-decoration="none">2.实施部署</text><text id="ProcessOnText1118" fill="#323232" font-size="19" x="0.0" y="66.975" font-family="微软雅黑" size="19" text-anchor="start" font-weight="normal" font-style="normal" family="微软雅黑" text-decoration="none"></text></g></g><g id="ProcessOnG1119" transform="matrix(-1.8369701987210297E-16,-1.0,1.0,-1.8369701987210297E-16,821.0256984469517,1026.3869863013697)" opacity="1.0"><path id="ProcessOnPath1120" d="M23.81849315068493 0L47.63698630136986 21.070205479452053L0 21.070205479452053Z" stroke="#ffffff" stroke-width="2.0" stroke-dasharray="none" fill="#ffffff"/></g></g></g></svg>